<svg width="79" height="99" viewBox="0 0 79 99" fill="none" xmlns="http://www.w3.org/2000/svg">
<path d="M61.7025 16.4949H51.3271V26.398H61.7025V16.4949ZM0 0V99H61.7025V52.2643H68.6246V99H79V0H0ZM68.6246 42.3613H61.7025V32.4583H51.3271V42.3613H44.9551V32.4583H34.5797V49.4848V59.3878V67.0126C34.5797 71.1439 33.1128 72.7235 31.111 72.7235C29.1093 72.7235 27.6424 71.1287 27.6424 67.0126L27.6576 32.4431H17.2822L17.2669 67.8631C17.2669 78.2978 23.1957 83.1278 31.111 83.1278C39.0263 83.1278 44.9551 78.2978 44.9551 67.8631V52.2643H51.3271V89.097H10.3754V9.90303H68.6246V42.3613V42.3613ZM44.9551 16.4949H17.2975V26.398H44.9551V16.4949Z" fill="#DD481D"/>
</svg>
